<svg width="49" height="24" viewBox="0 0 49 24" fill="none" xmlns="http://www.w3.org/2000/svg">
<g clip-path="url(#clip0_5_15401)">
<path d="M17.5326 17.3811L13.0607 10.5141L13.1847 10.5133C14.8604 10.5153 16.2193 9.1233 16.2193 7.40571V3.0457C16.2193 1.36363 14.8893 0 13.2484 0H0.76294C0.576522 0 0.425293 0.155043 0.425293 0.346026V4.0353C0.425293 4.22628 0.576522 4.38132 0.76294 4.38132H10.4923C10.6787 4.38132 10.8299 4.53637 10.8299 4.72735V6.18083C10.8299 6.37223 10.6787 6.52727 10.4923 6.52727H0.72817C0.561022 6.52727 0.425293 6.66601 0.425293 6.83777V17.4087H0.990413H5.81132L5.81425 10.5133H6.82174C6.93443 10.5133 7.03916 10.5705 7.102 10.6662L11.5002 17.4087H12.7666L14.5839 17.4079V17.4087H15.149V17.4074L16.9663 17.4066V17.4083H17.5314V17.3807L17.5326 17.3811Z" fill="black"/>
<path d="M0.858712 20.2794V17.4092H0.424713V20.2794C0.177552 20.3684 -0.000488281 20.6024 -0.000488281 20.8799C-0.000488281 21.2334 0.286889 21.5205 0.641712 21.5205C0.996535 21.5205 1.28391 21.2339 1.28391 20.8799C1.28391 20.6024 1.10629 20.3684 0.858712 20.2794Z" fill="black"/>
<path d="M5.81002 20.2789L5.81128 17.4087H5.37602V20.2793C5.12928 20.3683 4.95166 20.6023 4.95166 20.8794C4.95166 21.2329 5.23904 21.52 5.59386 21.52C5.94868 21.52 6.23606 21.2334 6.23606 20.8794C6.23606 20.6019 6.05802 20.3679 5.81044 20.2789H5.81002Z" fill="black"/>
<path d="M3.33479 22.5088V17.4087H2.90079V22.5088C2.65363 22.5978 2.47559 22.8319 2.47559 23.1093C2.47559 23.4629 2.76296 23.75 3.11779 23.75C3.47261 23.75 3.75999 23.4633 3.75999 23.1093C3.75999 22.8319 3.58237 22.5978 3.33479 22.5088Z" fill="black"/>
<path d="M11.9344 20.2794V17.4092H11.5004V20.2794C11.2532 20.3684 11.0752 20.6024 11.0752 20.8799C11.0752 21.2334 11.3626 21.5205 11.7174 21.5205C12.0722 21.5205 12.3596 21.2339 12.3596 20.8799C12.3596 20.6024 12.182 20.3684 11.9344 20.2794Z" fill="black"/>
<path d="M17.5325 20.2794V17.4092H17.0985V20.2794C16.8514 20.3684 16.6733 20.6024 16.6733 20.8799C16.6733 21.2334 16.9607 21.5205 17.3155 21.5205C17.6704 21.5205 17.9577 21.2339 17.9577 20.8799C17.9577 20.6024 17.7801 20.3684 17.5325 20.2794Z" fill="black"/>
<path d="M14.7069 22.5088V17.4087H14.2729V22.5088C14.0258 22.5978 13.8481 22.8319 13.8481 23.1089C13.8481 23.4625 14.1355 23.7496 14.4903 23.7496C14.8452 23.7496 15.1325 23.4629 15.1325 23.1089C15.1325 22.8314 14.9545 22.5974 14.7069 22.5084V22.5088Z" fill="black"/>
</g>
<defs>
<clipPath id="clip0_5_15401">
<rect width="49" height="24" fill="white"/>
</clipPath>
</defs>
</svg>
